<?xml version="1.0" encoding="iso-8859-1"?>
<!-- Generator: Adobe Illustrator 26.1.0, SVG Export Plug-In . SVG Version: 6.00 Build 0)  -->
<svg version="1.1" id="Layer_1" xmlns="http://www.w3.org/2000/svg" xmlns:xlink="http://www.w3.org/1999/xlink" x="0px" y="0px"
	 viewBox="0 0 50 50" style="enable-background:new 0 0 50 50;" xml:space="preserve">
<g>
	<path style="fill:#FF9600;" d="M41.351,25.693c0-1.891-0.358-3.693-0.982-5.366c-0.17-1.848-0.662-3.651-1.645-5.329
		c-2.407-4.108-6.969-5.297-11.462-4.937c-0.948,0.076-1.891,0.188-2.821,0.344c-2.219,0.222-4.292,0.926-6.131,1.99
		c-1.722,0.922-3.271,2.168-4.537,3.855c-1.057,1.408-1.816,2.946-2.346,4.556c-0.057,0.17-0.115,0.339-0.166,0.511
		c-0.115,0.387-0.212,0.778-0.301,1.172c-0.012,0.058-0.026,0.116-0.038,0.175c-0.035,0.161-0.073,0.32-0.104,0.482
		c-1.149,2.513-1.813,5.263-1.41,7.919c0.582,3.836,3.538,5.696,6.881,6.543c2.645,2.156,6.019,3.452,9.698,3.452
		c2.114,0,4.127-0.428,5.96-1.2c0.546-0.119,1.084-0.303,1.61-0.569c0.87-0.441,1.595-1.044,2.215-1.75
		C39.178,34.722,41.351,30.462,41.351,25.693z"/>
</g>
<g>
	<g>
		<path style="fill:#FF9600;" d="M25.562,2.266c0.012,0.079,0.026,0.158,0.034,0.237C25.57,2.24,25.601,2.54,25.607,2.594
			c0.02,0.159,0.038,0.318,0.055,0.477c0.035,0.332,0.064,0.664,0.086,0.997c0.045,0.666,0.063,1.334,0.057,2.002
			c-0.004,0.523,0.463,1.024,1,1c0.545-0.024,0.995-0.439,1-1c0.012-1.453-0.104-2.898-0.315-4.335
			c-0.034-0.23-0.268-0.486-0.46-0.598c-0.214-0.125-0.53-0.179-0.771-0.101c-0.242,0.078-0.475,0.228-0.598,0.46
			C25.529,1.749,25.521,1.984,25.562,2.266L25.562,2.266z"/>
	</g>
</g>
<g>
	<g>
		<path style="fill:#FF9600;" d="M10.197,5.533c1.107,1.723,2.347,3.364,3.703,4.9c0.347,0.393,1.064,0.381,1.414,0
			c0.385-0.42,0.371-0.995,0-1.414C15,8.663,14.692,8.303,14.392,7.936c-0.155-0.189-0.309-0.38-0.46-0.572
			c-0.036-0.045-0.071-0.091-0.107-0.136c-0.055-0.071-0.061-0.079-0.003-0.003c-0.079-0.103-0.158-0.206-0.236-0.31
			c-0.584-0.776-1.138-1.574-1.663-2.391c-0.282-0.44-0.901-0.66-1.368-0.359C10.116,4.448,9.895,5.062,10.197,5.533L10.197,5.533z"
			/>
	</g>
</g>
<g>
	<g>
		<path style="fill:#DF4BB1;" d="M3,21c0.854,0.106,1.742,0.058,2.601,0.065c0.859,0.007,1.747-0.041,2.601,0.065
			c0.521,0.064,1.022-0.506,1-1c-0.027-0.597-0.442-0.931-1-1c-0.854-0.106-1.742-0.058-2.601-0.065C4.742,19.058,3.854,19.106,3,19
			c-0.521-0.064-1.022,0.506-1,1C2.027,20.597,2.442,20.931,3,21L3,21z"/>
	</g>
</g>
<g>
	<g>
		<path style="fill:#FF9600;" d="M2.266,36.964c1.456-0.583,2.913-1.165,4.369-1.748c0.21-0.084,0.421-0.168,0.631-0.252
			c0.484-0.194,0.878-0.676,0.698-1.23c-0.152-0.468-0.71-0.906-1.23-0.698c-1.456,0.583-2.913,1.165-4.369,1.748
			c-0.21,0.084-0.421,0.168-0.631,0.252c-0.484,0.194-0.878,0.676-0.698,1.23C1.187,36.734,1.746,37.172,2.266,36.964L2.266,36.964z
			"/>
	</g>
</g>
<g>
	<g>
		<path style="fill:#DF4BB1;" d="M38.631,40.563c0.226,0.153,0.45,0.309,0.671,0.469c0.116,0.084,0.231,0.17,0.346,0.257
			c0.031,0.024,0.192,0.148,0.037,0.027c0.045,0.035,0.091,0.071,0.136,0.106c0.439,0.347,0.866,0.711,1.278,1.09
			c0.814,0.749,1.57,1.559,2.266,2.418c0.331,0.408,1.075,0.369,1.414,0c0.398-0.434,0.353-0.979,0-1.414
			c-1.465-1.811-3.207-3.378-5.137-4.681c-0.435-0.293-1.127-0.098-1.368,0.359C38.005,39.7,38.167,40.25,38.631,40.563
			L38.631,40.563z"/>
	</g>
</g>
<g>
	<g>
		<path style="fill:#DF4BB1;" d="M41.184,11.088c1.904-2.036,3.669-4.2,5.301-6.459c0.307-0.425,0.087-1.133-0.359-1.368
			c-0.518-0.274-1.04-0.095-1.368,0.359c-1.522,2.107-3.183,4.123-4.989,6.055c-0.357,0.382-0.407,1.041,0,1.414
			C40.158,11.445,40.803,11.496,41.184,11.088L41.184,11.088z"/>
	</g>
</g>
<g>
	<g>
		<path style="fill:#FF9600;" d="M29.759,45.855c0.416,0.776,0.832,1.551,1.249,2.327c0.248,0.462,0.926,0.644,1.368,0.359
			c0.469-0.302,0.624-0.874,0.359-1.368c-0.416-0.776-0.832-1.551-1.249-2.327c-0.248-0.462-0.926-0.644-1.368-0.359
			C29.649,44.789,29.494,45.361,29.759,45.855L29.759,45.855z"/>
	</g>
</g>
<g>
	<g>
		<path style="fill:#FF9600;" d="M43.351,32.627c0.055,0,0.109,0.003,0.163,0.01c-0.089-0.012-0.177-0.024-0.266-0.036
			c0.082,0.012,0.16,0.033,0.236,0.065c-0.08-0.034-0.159-0.067-0.239-0.101c0.25,0.107,0.473,0.279,0.7,0.426
			c0.499,0.32,1.019,0.606,1.55,0.872c0.241,0.121,0.504,0.174,0.771,0.101c0.232-0.064,0.483-0.243,0.598-0.46
			c0.24-0.454,0.14-1.118-0.359-1.368c-0.549-0.275-1.085-0.572-1.601-0.905c-0.307-0.198-0.592-0.39-0.94-0.513
			c-0.193-0.069-0.409-0.09-0.613-0.091c-0.523-0.002-1.024,0.462-1,1C42.375,32.171,42.79,32.625,43.351,32.627L43.351,32.627z"/>
	</g>
</g>
<g>
	<g>
		<path style="fill:#FF9600;" d="M45.194,22.75c0.016-0.035,0.053-0.073,0.063-0.108c-0.006,0.023-0.202,0.238-0.097,0.128
			c0.022-0.023,0.042-0.046,0.064-0.068c0.043-0.044,0.089-0.085,0.136-0.125c0.026-0.022,0.052-0.043,0.078-0.065
			c0.104-0.087-0.236,0.176-0.08,0.062c0.285-0.208,0.585-0.394,0.891-0.569c0.599-0.344,1.217-0.655,1.841-0.95
			c0.137-0.065,0.275-0.129,0.414-0.192c0.214-0.096,0.4-0.381,0.46-0.598c0.066-0.239,0.036-0.558-0.101-0.771
			c-0.138-0.214-0.343-0.401-0.598-0.46c-0.278-0.063-0.512-0.015-0.771,0.101c-0.395,0.177-0.785,0.366-1.171,0.561
			c-0.668,0.337-1.344,0.687-1.949,1.131c-0.324,0.238-0.737,0.53-0.908,0.912c-0.113,0.253-0.177,0.492-0.101,0.771
			c0.064,0.232,0.243,0.483,0.46,0.598C44.262,23.339,44.966,23.26,45.194,22.75L45.194,22.75z"/>
	</g>
</g>
<g>
	<g>
		<path style="fill:#DF4BB1;" d="M14.605,41.625c-0.003,0.116,0.03-0.203,0.029-0.203c-0.006,0.003-0.012,0.055-0.016,0.065
			c-0.008,0.019-0.016,0.042-0.021,0.062c-0.035,0.141,0.124-0.263,0.053-0.123c-0.066,0.129-0.131,0.257-0.206,0.382
			c-0.199,0.335-0.42,0.658-0.642,0.978c-0.466,0.673-0.962,1.331-1.379,2.037C12.211,45.183,12.012,45.573,12,46
			c-0.015,0.523,0.47,1.024,1,1c0.554-0.025,0.984-0.439,1-1c0.003-0.116-0.03,0.203-0.029,0.203
			c0.006-0.003,0.012-0.055,0.016-0.065c0.008-0.019,0.016-0.042,0.021-0.062c0.035-0.141-0.124,0.263-0.053,0.123
			c0.066-0.129,0.131-0.257,0.206-0.382c0.199-0.335,0.42-0.658,0.642-0.978c0.466-0.673,0.962-1.331,1.379-2.037
			c0.213-0.36,0.412-0.75,0.424-1.177c0.015-0.523-0.47-1.024-1-1C15.051,40.649,14.621,41.064,14.605,41.625L14.605,41.625z"/>
	</g>
</g>
<path style="fill:#231F20;" d="M30.187,29.167c-0.409-0.107-0.813-0.231-1.21-0.375c-0.193-0.07-0.385-0.146-0.575-0.224
	c-0.023-0.01-0.059-0.025-0.062-0.027c-0.055-0.024-0.111-0.048-0.166-0.073c-0.096-0.043-0.192-0.088-0.287-0.134
	c-0.236-0.113-0.551-0.073-0.684,0.179c-0.118,0.223-0.073,0.564,0.179,0.684c0.011,0.005,0.023,0.009,0.034,0.014
	c-0.288,0.449-0.607,0.87-0.968,1.263c-0.183,0.199-0.375,0.391-0.574,0.574c-0.189,0.174-0.391,0.387-0.619,0.51
	c-0.021,0.011-0.049,0.02-0.066,0.027c-0.019-0.014-0.056-0.032-0.05-0.027c-0.079-0.07-0.16-0.138-0.237-0.211
	c-0.19-0.181-0.368-0.373-0.534-0.576c-0.286-0.348-0.513-0.743-0.711-1.149c0.028-0.02,0.061-0.033,0.089-0.054
	c0.108-0.082,0.192-0.163,0.23-0.299c0.033-0.12,0.018-0.279-0.05-0.385c-0.132-0.205-0.461-0.348-0.684-0.179
	c-0.168,0.128-0.347,0.24-0.536,0.334c-0.046,0.023-0.094,0.052-0.143,0.067c0.081-0.026,0.018-0.007-0.027,0.01
	c-0.099,0.038-0.199,0.071-0.3,0.099c-0.102,0.028-0.204,0.052-0.308,0.071c-0.022,0.004-0.065,0.014-0.096,0.016
	c-0.004,0-0.002,0-0.006,0.001c-0.026,0.003-0.052,0.005-0.079,0.008c-0.211,0.018-0.422,0.015-0.632-0.006
	c-0.261-0.027-0.511,0.249-0.5,0.5c0.013,0.294,0.22,0.471,0.5,0.5c0.556,0.057,1.127-0.034,1.658-0.227
	c0.259,0.536,0.578,1.038,0.965,1.492c0.401,0.471,0.989,1.176,1.688,0.995c0.344-0.089,0.619-0.341,0.882-0.565
	c0.247-0.211,0.484-0.434,0.709-0.668c0.479-0.499,0.906-1.051,1.278-1.634c0.021-0.033,0.025-0.064,0.037-0.097
	c0.52,0.206,1.048,0.391,1.589,0.532c0.253,0.066,0.555-0.083,0.615-0.349C30.596,29.521,30.458,29.238,30.187,29.167z"/>
<g>
	<path style="fill:#FFFFFF;" d="M21.711,14.369c-0.289-0.087-0.636-0.096-0.962-0.037c-0.356-0.023-0.718,0.029-1.03,0.21
		c-0.496,0.288-0.758,0.676-0.988,1.195c-0.609,1.375-0.52,2.92-0.365,4.376c0.155,1.448,0.375,2.862,0.923,4.219
		c0.113,0.28,0.248,0.552,0.408,0.808c0.293,0.469,0.659,1.06,1.164,1.341c1.33,0.74,2.798,0.071,3.63-1.075
		c1.057-1.458,0.338-3.421-0.03-5c-0.4-1.721-0.895-3.409-1.556-5.049C22.723,14.904,22.16,14.504,21.711,14.369z M19.55,17.667
		c0.014,0.04,0.026,0.08,0.042,0.12c-0.013-0.03-0.038-0.096-0.056-0.156C19.54,17.643,19.545,17.655,19.55,17.667z"/>
</g>
<g>
	<g>
		<path style="fill:#231F20;" d="M21.018,19.633c0.262,1.047,0.318,2.126,0.614,3.166c0.072,0.251,0.357,0.433,0.615,0.349
			c0.256-0.083,0.426-0.346,0.349-0.615c-0.296-1.04-0.352-2.119-0.614-3.166c-0.063-0.254-0.362-0.431-0.615-0.349
			C21.104,19.103,20.95,19.361,21.018,19.633L21.018,19.633z"/>
	</g>
</g>
<g>
	<path style="fill:#FFFFFF;" d="M33.094,16.519c-0.204-0.185-0.488-0.329-0.78-0.408c-0.285-0.158-0.604-0.257-0.933-0.23
		c-0.522,0.043-0.891,0.261-1.284,0.599c-1.042,0.896-1.575,2.207-2.017,3.47c-0.44,1.256-0.813,2.51-0.893,3.846
		c-0.016,0.276-0.012,0.553,0.02,0.827c0.059,0.502,0.128,1.134,0.435,1.564c0.808,1.133,2.283,1.156,3.419,0.536
		c1.445-0.789,1.621-2.692,1.936-4.14c0.344-1.578,0.598-3.166,0.695-4.78C33.72,17.358,33.412,16.806,33.094,16.519z
		 M30.016,18.395c-0.005,0.039-0.01,0.077-0.012,0.115c0.001-0.03,0.006-0.095,0.015-0.151
		C30.018,18.371,30.017,18.383,30.016,18.395z"/>
</g>
<g>
	<g>
		<path style="fill:#231F20;" d="M30.018,20.367c-0.11,0.561-0.178,1.126-0.212,1.697c-0.014,0.232-0.026,0.465-0.045,0.696
			c-0.027,0.318-0.055,0.536-0.102,0.822c-0.042,0.257,0.067,0.551,0.349,0.615c0.241,0.055,0.57-0.073,0.615-0.349
			c0.092-0.565,0.145-1.132,0.178-1.703c0.013-0.232,0.028-0.464,0.052-0.695c0.007-0.062,0.014-0.124,0.021-0.186
			c0.004-0.033,0.009-0.068,0.002-0.015c0.005-0.034,0.01-0.068,0.015-0.103c0.026-0.172,0.057-0.343,0.09-0.514
			c0.05-0.256-0.072-0.552-0.349-0.615C30.385,19.961,30.072,20.093,30.018,20.367L30.018,20.367z"/>
	</g>
</g>
</svg>